<svg width="1450pt" height="278pt"
 viewBox="0.00 0.00 1450.03 277.60" xmlns="http://www.w3.org/2000/svg" xmlns:xlink="http://www.w3.org/1999/xlink">
<g id="graph0" class="graph" transform="scale(1 1) rotate(0) translate(4 273.5995)">
<title>%3</title>
<polygon fill="#ffffff" stroke="transparent" points="-4,4 -4,-273.5995 1446.0278,-273.5995 1446.0278,4 -4,4"/>
<!-- 结论:[p, q, r, s]\n支持证据:[q]\n非支持证据:[] -->
<g id="node1" class="node">
<title>结论:[p, q, r, s]\n支持证据:[q]\n非支持证据:[]</title>
<polygon fill="none" stroke="#000000" points="218.3777,-152.6999 116.8362,-152.6999 116.8362,-86.0998 218.3777,-86.0998 218.3777,-152.6999"/>
<text text-anchor="middle" x="167.6069" y="-137.5997" font-family="Times,serif" font-size="14.00" fill="#000000">结论:[p, q, r, s]</text>
<text text-anchor="middle" x="167.6069" y="-117.9998" font-family="Times,serif" font-size="14.00" fill="#000000">支持证据:[q]</text>
<text text-anchor="middle" x="167.6069" y="-98.3999" font-family="Times,serif" font-size="14.00" fill="#000000">非支持证据:[]</text>
</g>
<!-- q -->
<g id="node3" class="node">
<title>q</title>
<ellipse fill="none" stroke="#000000" cx="109.6069" cy="-18" rx="27" ry="18"/>
<text text-anchor="middle" x="109.6069" y="-13.8" font-family="Times,serif" font-size="14.00" fill="#000000">q</text>
</g>
<!-- 结论:[p, q, r, s]\n支持证据:[q]\n非支持证据:[]&#45;&gt;q -->
<g id="edge3" class="edge">
<title>结论:[p, q, r, s]\n支持证据:[q]\n非支持证据:[]&#45;&gt;q:n</title>
<path fill="none" stroke="#000000" d="M130.8747,-85.9097C121.5224,-74.5072 113.3275,-60.9104 110.5833,-46.2798"/>
<polygon fill="#000000" stroke="#000000" points="109.6069,-36 115.0324,-45.5297 110.0797,-40.9776 110.5525,-45.9552 110.5525,-45.9552 110.5525,-45.9552 110.0797,-40.9776 106.0727,-46.3807 109.6069,-36 109.6069,-36"/>
<text text-anchor="middle" x="122.5547" y="-56.8" font-family="Times,serif" font-size="14.00" fill="#000000">+</text>
</g>
<!-- 结论:[p, r]\n支持证据:[q]\n非支持证据:[] -->
<g id="node2" class="node">
<title>结论:[p, r]\n支持证据:[q]\n非支持证据:[]</title>
<polygon fill="none" stroke="#000000" points="99.321,-152.6999 -.1072,-152.6999 -.1072,-86.0998 99.321,-86.0998 99.321,-152.6999"/>
<text text-anchor="middle" x="49.6069" y="-137.5997" font-family="Times,serif" font-size="14.00" fill="#000000">结论:[p, r]</text>
<text text-anchor="middle" x="49.6069" y="-117.9998" font-family="Times,serif" font-size="14.00" fill="#000000">支持证据:[q]</text>
<text text-anchor="middle" x="49.6069" y="-98.3999" font-family="Times,serif" font-size="14.00" fill="#000000">非支持证据:[]</text>
</g>
<!-- 结论:[p, r]\n支持证据:[q]\n非支持证据:[]&#45;&gt;q -->
<g id="edge4" class="edge">
<title>结论:[p, r]\n支持证据:[q]\n非支持证据:[]&#45;&gt;q:n</title>
<path fill="none" stroke="#000000" d="M76.4481,-86.0509C87.6807,-71.6465 99.5107,-55.7741 105.5448,-45.4958"/>
<polygon fill="#000000" stroke="#000000" points="109.6069,-36 109.8111,-46.964 107.6404,-40.597 105.6738,-45.1941 105.6738,-45.1941 105.6738,-45.1941 107.6404,-40.597 101.5365,-43.4242 109.6069,-36 109.6069,-36"/>
<text text-anchor="middle" x="103.5547" y="-56.8" font-family="Times,serif" font-size="14.00" fill="#000000">+</text>
</g>
<!-- 结论:[like]\n支持证据:[]\n非支持证据:[unlike] -->
<g id="node4" class="node">
<title>结论:[like]\n支持证据:[]\n非支持证据:[unlike]</title>
<polygon fill="none" stroke="#000000" points="544.8141,-152.6999 410.3997,-152.6999 410.3997,-86.0998 544.8141,-86.0998 544.8141,-152.6999"/>
<text text-anchor="middle" x="477.6069" y="-137.5997" font-family="Times,serif" font-size="14.00" fill="#000000">结论:[like]</text>
<text text-anchor="middle" x="477.6069" y="-117.9998" font-family="Times,serif" font-size="14.00" fill="#000000">支持证据:[]</text>
<text text-anchor="middle" x="477.6069" y="-98.3999" font-family="Times,serif" font-size="14.00" fill="#000000">非支持证据:[unlike]</text>
</g>
<!-- unlike -->
<g id="node5" class="node">
<title>unlike</title>
<ellipse fill="none" stroke="#000000" cx="370.6069" cy="-18" rx="32.4237" ry="18"/>
<text text-anchor="middle" x="370.6069" y="-13.8" font-family="Times,serif" font-size="14.00" fill="#000000">unlike</text>
</g>
<!-- 结论:[like]\n支持证据:[]\n非支持证据:[unlike]&#45;&gt;unlike -->
<g id="edge10" class="edge">
<title>结论:[like]\n支持证据:[]\n非支持证据:[unlike]&#45;&gt;unlike:n</title>
<path fill="none" stroke="#000000" d="M419.4102,-85.9657C399.6077,-72.9734 380.6702,-58.2102 373.562,-45.5885"/>
<polygon fill="#000000" stroke="#000000" points="370.6069,-36 377.8526,-44.2311 372.0796,-40.7782 373.5522,-45.5565 373.5522,-45.5565 373.5522,-45.5565 372.0796,-40.7782 369.2518,-46.8818 370.6069,-36 370.6069,-36"/>
<text text-anchor="middle" x="396.938" y="-56.8" font-family="Times,serif" font-size="14.00" fill="#000000">&#45;</text>
</g>
<!-- 结论:[fly]\n支持证据:[]\n非支持证据:[] -->
<g id="node6" class="node">
<title>结论:[fly]\n支持证据:[]\n非支持证据:[]</title>
<polygon fill="none" stroke="#000000" points="662.321,-152.6999 562.8928,-152.6999 562.8928,-86.0998 662.321,-86.0998 662.321,-152.6999"/>
<text text-anchor="middle" x="612.6069" y="-137.5997" font-family="Times,serif" font-size="14.00" fill="#000000">结论:[fly]</text>
<text text-anchor="middle" x="612.6069" y="-117.9998" font-family="Times,serif" font-size="14.00" fill="#000000">支持证据:[]</text>
<text text-anchor="middle" x="612.6069" y="-98.3999" font-family="Times,serif" font-size="14.00" fill="#000000">非支持证据:[]</text>
</g>
<!-- 结论:[read]\n支持证据:[]\n非支持证据:[] -->
<g id="node7" class="node">
<title>结论:[read]\n支持证据:[]\n非支持证据:[]</title>
<polygon fill="none" stroke="#000000" points="779.321,-152.6999 679.8928,-152.6999 679.8928,-86.0998 779.321,-86.0998 779.321,-152.6999"/>
<text text-anchor="middle" x="729.6069" y="-137.5997" font-family="Times,serif" font-size="14.00" fill="#000000">结论:[read]</text>
<text text-anchor="middle" x="729.6069" y="-117.9998" font-family="Times,serif" font-size="14.00" fill="#000000">支持证据:[]</text>
<text text-anchor="middle" x="729.6069" y="-98.3999" font-family="Times,serif" font-size="14.00" fill="#000000">非支持证据:[]</text>
</g>
<!-- play -->
<g id="node8" class="node">
<title>play</title>
<ellipse fill="none" stroke="#000000" cx="824.6069" cy="-119.3999" rx="27" ry="18"/>
<text text-anchor="middle" x="824.6069" y="-115.1999" font-family="Times,serif" font-size="14.00" fill="#000000">play</text>
</g>
<!--  play2 -->
<g id="node9" class="node">
<title> play2</title>
<ellipse fill="none" stroke="#000000" cx="901.6069" cy="-119.3999" rx="31.9301" ry="18"/>
<text text-anchor="middle" x="901.6069" y="-115.1999" font-family="Times,serif" font-size="14.00" fill="#000000"> play2</text>
</g>
<!-- cool -->
<g id="node10" class="node">
<title>cool</title>
<ellipse fill="none" stroke="#000000" cx="984.6069" cy="-119.3999" rx="27" ry="18"/>
<text text-anchor="middle" x="984.6069" y="-115.1999" font-family="Times,serif" font-size="14.00" fill="#000000">cool</text>
</g>
<!-- 结论:[ssslike]\n支持证据:[]\n非支持证据:[unlike] -->
<g id="node11" class="node">
<title>结论:[ssslike]\n支持证据:[]\n非支持证据:[unlike]</title>
<polygon fill="none" stroke="#000000" points="392.8141,-152.6999 258.3997,-152.6999 258.3997,-86.0998 392.8141,-86.0998 392.8141,-152.6999"/>
<text text-anchor="middle" x="325.6069" y="-137.5997" font-family="Times,serif" font-size="14.00" fill="#000000">结论:[ssslike]</text>
<text text-anchor="middle" x="325.6069" y="-117.9998" font-family="Times,serif" font-size="14.00" fill="#000000">支持证据:[]</text>
<text text-anchor="middle" x="325.6069" y="-98.3999" font-family="Times,serif" font-size="14.00" fill="#000000">非支持证据:[unlike]</text>
</g>
<!-- 结论:[ssslike]\n支持证据:[]\n非支持证据:[unlike]&#45;&gt;unlike -->
<g id="edge14" class="edge">
<title>结论:[ssslike]\n支持证据:[]\n非支持证据:[unlike]&#45;&gt;unlike:n</title>
<path fill="none" stroke="#000000" d="M353.3375,-85.8223C360.7892,-74.2074 367.4307,-60.5298 369.7407,-46.3716"/>
<polygon fill="#000000" stroke="#000000" points="370.6069,-36 374.259,-46.3399 370.1907,-40.9827 369.7746,-45.9653 369.7746,-45.9653 369.7746,-45.9653 370.1907,-40.9827 365.2902,-45.5907 370.6069,-36 370.6069,-36"/>
<text text-anchor="middle" x="369.938" y="-56.8" font-family="Times,serif" font-size="14.00" fill="#000000">&#45;</text>
</g>
<!-- 结论:[pplfly]\n支持证据:[]\n非支持证据:[] -->
<g id="node12" class="node">
<title>结论:[pplfly]\n支持证据:[]\n非支持证据:[]</title>
<polygon fill="none" stroke="#000000" points="1313.321,-152.6999 1213.8928,-152.6999 1213.8928,-86.0998 1313.321,-86.0998 1313.321,-152.6999"/>
<text text-anchor="middle" x="1263.6069" y="-137.5997" font-family="Times,serif" font-size="14.00" fill="#000000">结论:[pplfly]</text>
<text text-anchor="middle" x="1263.6069" y="-117.9998" font-family="Times,serif" font-size="14.00" fill="#000000">支持证据:[]</text>
<text text-anchor="middle" x="1263.6069" y="-98.3999" font-family="Times,serif" font-size="14.00" fill="#000000">非支持证据:[]</text>
</g>
<!-- 结论:[saasaread]\n支持证据:[]\n非支持证据:[] -->
<g id="node13" class="node">
<title>结论:[saasaread]\n支持证据:[]\n非支持证据:[]</title>
<polygon fill="none" stroke="#000000" points="1441.9488,-152.6999 1331.265,-152.6999 1331.265,-86.0998 1441.9488,-86.0998 1441.9488,-152.6999"/>
<text text-anchor="middle" x="1386.6069" y="-137.5997" font-family="Times,serif" font-size="14.00" fill="#000000">结论:[saasaread]</text>
<text text-anchor="middle" x="1386.6069" y="-117.9998" font-family="Times,serif" font-size="14.00" fill="#000000">支持证据:[]</text>
<text text-anchor="middle" x="1386.6069" y="-98.3999" font-family="Times,serif" font-size="14.00" fill="#000000">非支持证据:[]</text>
</g>
<!-- playa -->
<g id="node14" class="node">
<title>playa</title>
<ellipse fill="none" stroke="#000000" cx="1061.6069" cy="-119.3999" rx="29.0172" ry="18"/>
<text text-anchor="middle" x="1061.6069" y="-115.1999" font-family="Times,serif" font-size="14.00" fill="#000000">playa</text>
</g>
<!--  playasa2 -->
<g id="node15" class="node">
<title> playasa2</title>
<ellipse fill="none" stroke="#000000" cx="1152.6069" cy="-119.3999" rx="43.0151" ry="18"/>
<text text-anchor="middle" x="1152.6069" y="-115.1999" font-family="Times,serif" font-size="14.00" fill="#000000"> playasa2</text>
</g>
<!-- 结论:[]\n支持证据:[play, play2]\n非支持证据:[cool] -->
<g id="node16" class="node">
<title>结论:[]\n支持证据:[play, play2]\n非支持证据:[cool]</title>
<polygon fill="none" stroke="#000000" points="970.6195,-269.4997 824.5944,-269.4997 824.5944,-202.8996 970.6195,-202.8996 970.6195,-269.4997"/>
<text text-anchor="middle" x="897.6069" y="-254.3995" font-family="Times,serif" font-size="14.00" fill="#000000">结论:[]</text>
<text text-anchor="middle" x="897.6069" y="-234.7996" font-family="Times,serif" font-size="14.00" fill="#000000">支持证据:[play, play2]</text>
<text text-anchor="middle" x="897.6069" y="-215.1997" font-family="Times,serif" font-size="14.00" fill="#000000">非支持证据:[cool]</text>
</g>
<!-- 结论:[]\n支持证据:[play, play2]\n非支持证据:[cool]&#45;&gt;play -->
<g id="edge17" class="edge">
<title>结论:[]\n支持证据:[play, play2]\n非支持证据:[cool]&#45;&gt;play:n</title>
<path fill="none" stroke="#000000" d="M856.4134,-202.5166C842.1188,-187.5103 828.8008,-168.4807 825.4264,-147.5043"/>
<polygon fill="#000000" stroke="#000000" points="824.6069,-137.3999 829.9006,-147.0034 825.0111,-142.3835 825.4153,-147.3672 825.4153,-147.3672 825.4153,-147.3672 825.0111,-142.3835 820.9301,-147.7309 824.6069,-137.3999 824.6069,-137.3999"/>
<text text-anchor="middle" x="844.5547" y="-173.5997" font-family="Times,serif" font-size="14.00" fill="#000000">+</text>
</g>
<!-- 结论:[]\n支持证据:[play, play2]\n非支持证据:[cool]&#45;&gt; play2 -->
<g id="edge18" class="edge">
<title>结论:[]\n支持证据:[play, play2]\n非支持证据:[cool]&#45;&gt; play2:n</title>
<path fill="none" stroke="#000000" d="M899.6304,-202.8287C900.4714,-186.6036 901.3068,-166.5382 901.5418,-147.5225"/>
<polygon fill="#000000" stroke="#000000" points="901.6069,-137.3999 906.0424,-147.4286 901.5747,-142.3998 901.5425,-147.3997 901.5425,-147.3997 901.5425,-147.3997 901.5747,-142.3998 897.0426,-147.3707 901.6069,-137.3999 901.6069,-137.3999"/>
<text text-anchor="middle" x="905.5547" y="-173.5997" font-family="Times,serif" font-size="14.00" fill="#000000">+</text>
</g>
<!-- 结论:[]\n支持证据:[play, play2]\n非支持证据:[cool]&#45;&gt;cool -->
<g id="edge19" class="edge">
<title>结论:[]\n支持证据:[play, play2]\n非支持证据:[cool]&#45;&gt;cool:n</title>
<path fill="none" stroke="#000000" d="M948.2152,-202.7768C964.8126,-188.1385 979.991,-169.3177 983.73,-147.5853"/>
<polygon fill="#000000" stroke="#000000" points="984.6069,-137.3999 988.2324,-147.7491 984.178,-142.3814 983.749,-147.363 983.749,-147.363 983.749,-147.363 984.178,-142.3814 979.2656,-146.977 984.6069,-137.3999 984.6069,-137.3999"/>
<text text-anchor="middle" x="976.938" y="-173.5997" font-family="Times,serif" font-size="14.00" fill="#000000">&#45;</text>
</g>
<!-- 结论:[]\n支持证据:[playa, playasa2]\n非支持证据:[cool] -->
<g id="node17" class="node">
<title>结论:[]\n支持证据:[playa, playasa2]\n非支持证据:[cool]</title>
<polygon fill="none" stroke="#000000" points="1160.1184,-269.4997 989.0955,-269.4997 989.0955,-202.8996 1160.1184,-202.8996 1160.1184,-269.4997"/>
<text text-anchor="middle" x="1074.6069" y="-254.3995" font-family="Times,serif" font-size="14.00" fill="#000000">结论:[]</text>
<text text-anchor="middle" x="1074.6069" y="-234.7996" font-family="Times,serif" font-size="14.00" fill="#000000">支持证据:[playa, playasa2]</text>
<text text-anchor="middle" x="1074.6069" y="-215.1997" font-family="Times,serif" font-size="14.00" fill="#000000">非支持证据:[cool]</text>
</g>
<!-- 结论:[]\n支持证据:[playa, playasa2]\n非支持证据:[cool]&#45;&gt;cool -->
<g id="edge22" class="edge">
<title>结论:[]\n支持证据:[playa, playasa2]\n非支持证据:[cool]&#45;&gt;cool:n</title>
<path fill="none" stroke="#000000" d="M1021.733,-202.6989C1004.7443,-188.1669 989.3011,-169.45 985.4986,-147.6364"/>
<polygon fill="#000000" stroke="#000000" points="984.6069,-137.3999 989.9578,-146.9716 985.0409,-142.381 985.4748,-147.3621 985.4748,-147.3621 985.4748,-147.3621 985.0409,-142.381 980.9918,-147.7527 984.6069,-137.3999 984.6069,-137.3999"/>
<text text-anchor="middle" x="1004.938" y="-173.5997" font-family="Times,serif" font-size="14.00" fill="#000000">&#45;</text>
</g>
<!-- 结论:[]\n支持证据:[playa, playasa2]\n非支持证据:[cool]&#45;&gt;playa -->
<g id="edge20" class="edge">
<title>结论:[]\n支持证据:[playa, playasa2]\n非支持证据:[cool]&#45;&gt;playa:n</title>
<path fill="none" stroke="#000000" d="M1067.9546,-202.506C1065.2434,-186.3728 1062.5676,-166.4731 1061.8152,-147.5077"/>
<polygon fill="#000000" stroke="#000000" points="1061.6069,-137.3999 1066.3121,-147.305 1061.71,-142.3988 1061.8131,-147.3977 1061.8131,-147.3977 1061.8131,-147.3977 1061.71,-142.3988 1057.314,-147.4905 1061.6069,-137.3999 1061.6069,-137.3999"/>
<text text-anchor="middle" x="1069.5547" y="-173.5997" font-family="Times,serif" font-size="14.00" fill="#000000">+</text>
</g>
<!-- 结论:[]\n支持证据:[playa, playasa2]\n非支持证据:[cool]&#45;&gt; playasa2 -->
<g id="edge21" class="edge">
<title>结论:[]\n支持证据:[playa, playasa2]\n非支持证据:[cool]&#45;&gt; playasa2:n</title>
<path fill="none" stroke="#000000" d="M1119.0752,-202.6182C1134.197,-187.7651 1148.1997,-168.8451 1151.746,-147.6397"/>
<polygon fill="#000000" stroke="#000000" points="1152.6069,-137.3999 1156.2532,-147.7418 1152.188,-142.3823 1151.769,-147.3647 1151.769,-147.3647 1151.769,-147.3647 1152.188,-142.3823 1147.2848,-146.9876 1152.6069,-137.3999 1152.6069,-137.3999"/>
<text text-anchor="middle" x="1147.5547" y="-173.5997" font-family="Times,serif" font-size="14.00" fill="#000000">+</text>
</g>
<!-- p -->
<g id="node18" class="node">
<title>p</title>
<ellipse fill="none" stroke="#000000" cx="30.6069" cy="-236.1996" rx="27" ry="18"/>
<text text-anchor="middle" x="30.6069" y="-231.9996" font-family="Times,serif" font-size="14.00" fill="#000000">p</text>
</g>
<!-- p&#45;&gt;结论:[p, q, r, s]\n支持证据:[q]\n非支持证据:[] -->
<g id="edge1" class="edge">
<title>p&#45;&gt;结论:[p, q, r, s]\n支持证据:[q]\n非支持证据:[]:n</title>
<path fill="none" stroke="#000000" d="M45.1998,-220.8716C51.4455,-214.803 59.0357,-208.0398 66.6069,-202.7997 75.1875,-196.8611 139.4094,-174.5965 160.7418,-160.0605"/>
<polygon fill="#000000" stroke="#000000" points="167.6069,-152.3999 164.2843,-162.8503 164.27,-156.1235 160.9331,-159.8471 160.9331,-159.8471 160.9331,-159.8471 164.27,-156.1235 157.5819,-156.8438 167.6069,-152.3999 167.6069,-152.3999"/>
</g>
<!-- p&#45;&gt;结论:[p, r]\n支持证据:[q]\n非支持证据:[] -->
<g id="edge2" class="edge">
<title>p&#45;&gt;结论:[p, r]\n支持证据:[q]\n非支持证据:[]:n</title>
<path fill="none" stroke="#000000" d="M37.0395,-218.4818C41.7549,-204.1246 47.5997,-183.0021 49.1907,-162.6268"/>
<polygon fill="#000000" stroke="#000000" points="49.6069,-152.3999 53.6965,-162.5746 49.4036,-157.3957 49.2002,-162.3916 49.2002,-162.3916 49.2002,-162.3916 49.4036,-157.3957 44.7039,-162.2086 49.6069,-152.3999 49.6069,-152.3999"/>
</g>
<!--  q -->
<g id="node19" class="node">
<title> q</title>
<ellipse fill="none" stroke="#000000" cx="174.6069" cy="-236.1996" rx="27" ry="18"/>
<text text-anchor="middle" x="174.6069" y="-231.9996" font-family="Times,serif" font-size="14.00" fill="#000000"> q</text>
</g>
<!--  q&#45;&gt;结论:[p, q, r, s]\n支持证据:[q]\n非支持证据:[] -->
<g id="edge5" class="edge">
<title> q&#45;&gt;结论:[p, q, r, s]\n支持证据:[q]\n非支持证据:[]:n</title>
<path fill="none" stroke="#000000" d="M172.2371,-218.2543C170.4998,-203.7596 168.3464,-182.5376 167.7603,-162.4476"/>
<polygon fill="#000000" stroke="#000000" points="167.6069,-152.3999 172.2591,-162.33 167.6833,-157.3993 167.7596,-162.3987 167.7596,-162.3987 167.7596,-162.3987 167.6833,-157.3993 163.2601,-162.4674 167.6069,-152.3999 167.6069,-152.3999"/>
</g>
<!--  r -->
<g id="node20" class="node">
<title> r</title>
<ellipse fill="none" stroke="#000000" cx="102.6069" cy="-236.1996" rx="27" ry="18"/>
<text text-anchor="middle" x="102.6069" y="-231.9996" font-family="Times,serif" font-size="14.00" fill="#000000"> r</text>
</g>
<!--  r&#45;&gt;结论:[p, q, r, s]\n支持证据:[q]\n非支持证据:[] -->
<g id="edge6" class="edge">
<title> r&#45;&gt;结论:[p, q, r, s]\n支持证据:[q]\n非支持证据:[]:n</title>
<path fill="none" stroke="#000000" d="M118.011,-221.1789C133.7786,-205.2448 157.0512,-180.0113 164.9057,-162.5645"/>
<polygon fill="#000000" stroke="#000000" points="167.6069,-152.3999 169.3876,-163.2202 166.3227,-157.2322 165.0385,-162.0644 165.0385,-162.0644 165.0385,-162.0644 166.3227,-157.2322 160.6895,-160.9086 167.6069,-152.3999 167.6069,-152.3999"/>
</g>
<!--  r&#45;&gt;结论:[p, r]\n支持证据:[q]\n非支持证据:[] -->
<g id="edge7" class="edge">
<title> r&#45;&gt;结论:[p, r]\n支持证据:[q]\n非支持证据:[]:n</title>
<path fill="none" stroke="#000000" d="M92.241,-219.4818C84.0007,-206.2367 72.1475,-187.283 61.6069,-170.7997 58.8127,-166.4301 55.6006,-164.2657 53.2032,-161.7329"/>
<polygon fill="#000000" stroke="#000000" points="49.6069,-152.3999 57.4017,-160.113 51.4048,-157.0655 53.2026,-161.7311 53.2026,-161.7311 53.2026,-161.7311 51.4048,-157.0655 49.0036,-163.3491 49.6069,-152.3999 49.6069,-152.3999"/>
</g>
<!--  s -->
<g id="node21" class="node">
<title> s</title>
<ellipse fill="none" stroke="#000000" cx="246.6069" cy="-236.1996" rx="27" ry="18"/>
<text text-anchor="middle" x="246.6069" y="-231.9996" font-family="Times,serif" font-size="14.00" fill="#000000"> s</text>
</g>
<!--  s&#45;&gt;结论:[p, q, r, s]\n支持证据:[q]\n非支持证据:[] -->
<g id="edge8" class="edge">
<title> s&#45;&gt;结论:[p, q, r, s]\n支持证据:[q]\n非支持证据:[]:n</title>
<path fill="none" stroke="#000000" d="M231.7476,-220.971C214.4056,-203.1428 186.5129,-174.2841 174.0195,-160.3453"/>
<polygon fill="#000000" stroke="#000000" points="167.6069,-152.3999 177.3893,-157.3554 170.7472,-156.2907 173.8875,-160.1816 173.8875,-160.1816 173.8875,-160.1816 170.7472,-156.2907 170.3857,-163.0079 167.6069,-152.3999 167.6069,-152.3999"/>
</g>
<!-- like -->
<g id="node22" class="node">
<title>like</title>
<ellipse fill="none" stroke="#000000" cx="477.6069" cy="-236.1996" rx="27" ry="18"/>
<text text-anchor="middle" x="477.6069" y="-231.9996" font-family="Times,serif" font-size="14.00" fill="#000000">like</text>
</g>
<!-- like&#45;&gt;结论:[like]\n支持证据:[]\n非支持证据:[unlike] -->
<g id="edge9" class="edge">
<title>like&#45;&gt;结论:[like]\n支持证据:[]\n非支持证据:[unlike]:n</title>
<path fill="none" stroke="#000000" d="M477.6069,-217.8907C477.6069,-203.4338 477.6069,-182.4601 477.6069,-162.6269"/>
<polygon fill="#000000" stroke="#000000" points="477.6069,-152.3999 482.107,-162.3998 477.607,-157.3999 477.607,-162.3999 477.607,-162.3999 477.607,-162.3999 477.607,-157.3999 473.107,-162.3999 477.6069,-152.3999 477.6069,-152.3999"/>
</g>
<!-- fly -->
<g id="node23" class="node">
<title>fly</title>
<ellipse fill="none" stroke="#000000" cx="612.6069" cy="-236.1996" rx="27" ry="18"/>
<text text-anchor="middle" x="612.6069" y="-231.9996" font-family="Times,serif" font-size="14.00" fill="#000000">fly</text>
</g>
<!-- fly&#45;&gt;结论:[fly]\n支持证据:[]\n非支持证据:[] -->
<g id="edge11" class="edge">
<title>fly&#45;&gt;结论:[fly]\n支持证据:[]\n非支持证据:[]:n</title>
<path fill="none" stroke="#000000" d="M612.6069,-217.8907C612.6069,-203.4338 612.6069,-182.4601 612.6069,-162.6269"/>
<polygon fill="#000000" stroke="#000000" points="612.6069,-152.3999 617.107,-162.3998 612.607,-157.3999 612.607,-162.3999 612.607,-162.3999 612.607,-162.3999 612.607,-157.3999 608.107,-162.3999 612.6069,-152.3999 612.6069,-152.3999"/>
</g>
<!-- read -->
<g id="node24" class="node">
<title>read</title>
<ellipse fill="none" stroke="#000000" cx="729.6069" cy="-236.1996" rx="27" ry="18"/>
<text text-anchor="middle" x="729.6069" y="-231.9996" font-family="Times,serif" font-size="14.00" fill="#000000">read</text>
</g>
<!-- read&#45;&gt;结论:[read]\n支持证据:[]\n非支持证据:[] -->
<g id="edge12" class="edge">
<title>read&#45;&gt;结论:[read]\n支持证据:[]\n非支持证据:[]:n</title>
<path fill="none" stroke="#000000" d="M729.6069,-217.8907C729.6069,-203.4338 729.6069,-182.4601 729.6069,-162.6269"/>
<polygon fill="#000000" stroke="#000000" points="729.6069,-152.3999 734.107,-162.3998 729.607,-157.3999 729.607,-162.3999 729.607,-162.3999 729.607,-162.3999 729.607,-157.3999 725.107,-162.3999 729.6069,-152.3999 729.6069,-152.3999"/>
</g>
<!-- ssslike -->
<g id="node25" class="node">
<title>ssslike</title>
<ellipse fill="none" stroke="#000000" cx="325.6069" cy="-236.1996" rx="33.8857" ry="18"/>
<text text-anchor="middle" x="325.6069" y="-231.9996" font-family="Times,serif" font-size="14.00" fill="#000000">ssslike</text>
</g>
<!-- ssslike&#45;&gt;结论:[ssslike]\n支持证据:[]\n非支持证据:[unlike] -->
<g id="edge13" class="edge">
<title>ssslike&#45;&gt;结论:[ssslike]\n支持证据:[]\n非支持证据:[unlike]:n</title>
<path fill="none" stroke="#000000" d="M325.6069,-217.8907C325.6069,-203.4338 325.6069,-182.4601 325.6069,-162.6269"/>
<polygon fill="#000000" stroke="#000000" points="325.6069,-152.3999 330.107,-162.3998 325.607,-157.3999 325.607,-162.3999 325.607,-162.3999 325.607,-162.3999 325.607,-157.3999 321.107,-162.3999 325.6069,-152.3999 325.6069,-152.3999"/>
</g>
<!-- pplfly -->
<g id="node26" class="node">
<title>pplfly</title>
<ellipse fill="none" stroke="#000000" cx="1263.6069" cy="-236.1996" rx="30.9967" ry="18"/>
<text text-anchor="middle" x="1263.6069" y="-231.9996" font-family="Times,serif" font-size="14.00" fill="#000000">pplfly</text>
</g>
<!-- pplfly&#45;&gt;结论:[pplfly]\n支持证据:[]\n非支持证据:[] -->
<g id="edge15" class="edge">
<title>pplfly&#45;&gt;结论:[pplfly]\n支持证据:[]\n非支持证据:[]:n</title>
<path fill="none" stroke="#000000" d="M1263.6069,-217.8907C1263.6069,-203.4338 1263.6069,-182.4601 1263.6069,-162.6269"/>
<polygon fill="#000000" stroke="#000000" points="1263.6069,-152.3999 1268.107,-162.3998 1263.607,-157.3999 1263.607,-162.3999 1263.607,-162.3999 1263.607,-162.3999 1263.607,-157.3999 1259.107,-162.3999 1263.6069,-152.3999 1263.6069,-152.3999"/>
</g>
<!-- saasaread -->
<g id="node27" class="node">
<title>saasaread</title>
<ellipse fill="none" stroke="#000000" cx="1386.6069" cy="-236.1996" rx="43.9646" ry="18"/>
<text text-anchor="middle" x="1386.6069" y="-231.9996" font-family="Times,serif" font-size="14.00" fill="#000000">saasaread</text>
</g>
<!-- saasaread&#45;&gt;结论:[saasaread]\n支持证据:[]\n非支持证据:[] -->
<g id="edge16" class="edge">
<title>saasaread&#45;&gt;结论:[saasaread]\n支持证据:[]\n非支持证据:[]:n</title>
<path fill="none" stroke="#000000" d="M1386.6069,-217.8907C1386.6069,-203.4338 1386.6069,-182.4601 1386.6069,-162.6269"/>
<polygon fill="#000000" stroke="#000000" points="1386.6069,-152.3999 1391.107,-162.3998 1386.607,-157.3999 1386.607,-162.3999 1386.607,-162.3999 1386.607,-162.3999 1386.607,-157.3999 1382.107,-162.3999 1386.6069,-152.3999 1386.6069,-152.3999"/>
</g>
</g>
</svg>
